<svg width="145" height="52" viewBox="0 0 145 52" fill="none" xmlns="http://www.w3.org/2000/svg">
<rect y="4" width="46" height="46" rx="4" fill="#153FD6"/>
<path d="M24.47 22.4099L26.93 21.1999C27.23 21.0499 27.31 20.6599 27.08 20.4199C26.19 19.4399 25.29 18.6199 24.57 17.9999C24.24 17.7199 23.75 17.9499 23.75 18.3799V21.9599C23.75 22.3299 24.14 22.5699 24.47 22.4099Z" fill="white"/>
<path d="M23.75 34.7399V36.3899C23.75 36.6899 24.02 36.9399 24.32 36.8899C27.05 36.4399 29.33 34.6099 30.41 32.1499C30.6 31.7299 30.14 31.3099 29.72 31.5099L24.03 34.2999C23.86 34.3799 23.75 34.5499 23.75 34.7399Z" fill="white"/>
<path d="M22.25 18.3599C22.25 17.9299 21.76 17.6999 21.43 17.9699C19.07 19.9499 14.88 24.1199 14.9 28.8999C14.9 32.9199 17.84 36.2499 21.68 36.8899C21.98 36.9399 22.25 36.6899 22.25 36.3899V18.3599Z" fill="white"/>
<path d="M24.44 27.4699L29.73 25.2499C30 25.1299 30.13 24.8199 30 24.5599C29.63 23.8299 29.2 23.1199 28.73 22.4599C28.59 22.2599 28.33 22.1999 28.11 22.2999L24.02 24.2899C23.85 24.3699 23.74 24.5499 23.74 24.7399V27.0099C23.75 27.3599 24.11 27.6099 24.44 27.4699Z" fill="white"/>
<path d="M30.83 29.3099C30.99 29.2299 31.09 29.0799 31.09 28.9099C31.09 28.2699 31.01 27.6399 30.87 27.0199C30.8 26.7199 30.47 26.5599 30.19 26.6799L24.05 29.2999C23.87 29.3799 23.75 29.5599 23.75 29.7599V31.9599C23.75 32.3299 24.14 32.5699 24.47 32.4099L30.37 29.5399L30.83 29.3099Z" fill="white"/>
<path d="M54.646 9.27V19H53.05V9.27H54.646ZM58.3374 12.406C58.5707 12.014 58.8787 11.7107 59.2614 11.496C59.6534 11.272 60.1154 11.16 60.6474 11.16V12.812H60.2414C59.6161 12.812 59.1401 12.9707 58.8134 13.288C58.4961 13.6053 58.3374 14.156 58.3374 14.94V19H56.7414V11.286H58.3374V12.406ZM69.1845 14.954C69.1845 15.2433 69.1658 15.5047 69.1285 15.738H63.2345C63.2811 16.354 63.5098 16.8487 63.9205 17.222C64.3311 17.5953 64.8351 17.782 65.4325 17.782C66.2911 17.782 66.8978 17.4227 67.2525 16.704H68.9745C68.7411 17.4133 68.3165 17.9967 67.7005 18.454C67.0938 18.902 66.3378 19.126 65.4325 19.126C64.6951 19.126 64.0325 18.9627 63.4445 18.636C62.8658 18.3 62.4085 17.8333 62.0725 17.236C61.7458 16.6293 61.5825 15.9293 61.5825 15.136C61.5825 14.3427 61.7411 13.6473 62.0585 13.05C62.3851 12.4433 62.8378 11.9767 63.4165 11.65C64.0045 11.3233 64.6765 11.16 65.4325 11.16C66.1605 11.16 66.8091 11.3187 67.3785 11.636C67.9478 11.9533 68.3911 12.4013 68.7085 12.98C69.0258 13.5493 69.1845 14.2073 69.1845 14.954ZM67.5185 14.45C67.5091 13.862 67.2991 13.3907 66.8885 13.036C66.4778 12.6813 65.9691 12.504 65.3625 12.504C64.8118 12.504 64.3405 12.6813 63.9485 13.036C63.5565 13.3813 63.3231 13.8527 63.2485 14.45H67.5185ZM80.0931 11.16C80.6997 11.16 81.2411 11.286 81.7171 11.538C82.2024 11.79 82.5804 12.1633 82.8511 12.658C83.1311 13.1527 83.2711 13.75 83.2711 14.45V19H81.6891V14.688C81.6891 13.9973 81.5164 13.47 81.1711 13.106C80.8257 12.7327 80.3544 12.546 79.7571 12.546C79.1597 12.546 78.6837 12.7327 78.3291 13.106C77.9837 13.47 77.8111 13.9973 77.8111 14.688V19H76.2291V14.688C76.2291 13.9973 76.0564 13.47 75.7111 13.106C75.3657 12.7327 74.8944 12.546 74.2971 12.546C73.6997 12.546 73.2237 12.7327 72.8691 13.106C72.5237 13.47 72.3511 13.9973 72.3511 14.688V19H70.7551V11.286H72.3511V12.168C72.6124 11.8507 72.9437 11.6033 73.3451 11.426C73.7464 11.2487 74.1757 11.16 74.6331 11.16C75.2491 11.16 75.7997 11.2907 76.2851 11.552C76.7704 11.8133 77.1437 12.1913 77.4051 12.686C77.6384 12.2193 78.0024 11.8507 78.4971 11.58C78.9917 11.3 79.5237 11.16 80.0931 11.16ZM92.372 14.954C92.372 15.2433 92.3533 15.5047 92.316 15.738H86.422C86.4686 16.354 86.6973 16.8487 87.108 17.222C87.5186 17.5953 88.0226 17.782 88.62 17.782C89.4786 17.782 90.0853 17.4227 90.44 16.704H92.162C91.9286 17.4133 91.504 17.9967 90.888 18.454C90.2813 18.902 89.5253 19.126 88.62 19.126C87.8826 19.126 87.22 18.9627 86.632 18.636C86.0533 18.3 85.596 17.8333 85.26 17.236C84.9333 16.6293 84.77 15.9293 84.77 15.136C84.77 14.3427 84.9286 13.6473 85.246 13.05C85.5726 12.4433 86.0253 11.9767 86.604 11.65C87.192 11.3233 87.864 11.16 88.62 11.16C89.348 11.16 89.9966 11.3187 90.566 11.636C91.1353 11.9533 91.5786 12.4013 91.896 12.98C92.2133 13.5493 92.372 14.2073 92.372 14.954ZM90.706 14.45C90.6966 13.862 90.4866 13.3907 90.076 13.036C89.6653 12.6813 89.1566 12.504 88.55 12.504C87.9993 12.504 87.528 12.6813 87.136 13.036C86.744 13.3813 86.5106 13.8527 86.436 14.45H90.706ZM55.85 34.126C55.2433 34.126 54.6973 34.0187 54.212 33.804C53.736 33.58 53.358 33.2813 53.078 32.908C52.798 32.5253 52.6487 32.1007 52.63 31.634H54.282C54.31 31.9607 54.464 32.236 54.744 32.46C55.0333 32.6747 55.3927 32.782 55.822 32.782C56.27 32.782 56.6153 32.698 56.858 32.53C57.11 32.3527 57.236 32.1287 57.236 31.858C57.236 31.5687 57.096 31.354 56.816 31.214C56.5453 31.074 56.1113 30.92 55.514 30.752C54.9353 30.5933 54.464 30.4393 54.1 30.29C53.736 30.1407 53.4187 29.912 53.148 29.604C52.8867 29.296 52.756 28.89 52.756 28.386C52.756 27.9753 52.8773 27.602 53.12 27.266C53.3627 26.9207 53.708 26.65 54.156 26.454C54.6133 26.258 55.136 26.16 55.724 26.16C56.6013 26.16 57.306 26.384 57.838 26.832C58.3793 27.2707 58.6687 27.8727 58.706 28.638H57.11C57.082 28.2927 56.942 28.0173 56.69 27.812C56.438 27.6067 56.0973 27.504 55.668 27.504C55.248 27.504 54.926 27.5833 54.702 27.742C54.478 27.9007 54.366 28.1107 54.366 28.372C54.366 28.5773 54.4407 28.75 54.59 28.89C54.7393 29.03 54.9213 29.142 55.136 29.226C55.3507 29.3007 55.668 29.3987 56.088 29.52C56.648 29.6693 57.1053 29.8233 57.46 29.982C57.824 30.1313 58.1367 30.3553 58.398 30.654C58.6593 30.9527 58.7947 31.3493 58.804 31.844C58.804 32.2827 58.6827 32.6747 58.44 33.02C58.1973 33.3653 57.852 33.636 57.404 33.832C56.9653 34.028 56.4473 34.126 55.85 34.126ZM63.8745 34.126C63.1465 34.126 62.4885 33.9627 61.9005 33.636C61.3125 33.3 60.8505 32.8333 60.5145 32.236C60.1785 31.6293 60.0105 30.9293 60.0105 30.136C60.0105 29.352 60.1832 28.6567 60.5285 28.05C60.8738 27.4433 61.3452 26.9767 61.9425 26.65C62.5398 26.3233 63.2072 26.16 63.9445 26.16C64.6818 26.16 65.3492 26.3233 65.9465 26.65C66.5438 26.9767 67.0152 27.4433 67.3605 28.05C67.7058 28.6567 67.8785 29.352 67.8785 30.136C67.8785 30.92 67.7012 31.6153 67.3465 32.222C66.9918 32.8287 66.5065 33.3 65.8905 33.636C65.2838 33.9627 64.6118 34.126 63.8745 34.126ZM63.8745 32.74C64.2852 32.74 64.6678 32.642 65.0225 32.446C65.3865 32.25 65.6805 31.956 65.9045 31.564C66.1285 31.172 66.2405 30.696 66.2405 30.136C66.2405 29.576 66.1332 29.1047 65.9185 28.722C65.7038 28.33 65.4192 28.036 65.0645 27.84C64.7098 27.644 64.3272 27.546 63.9165 27.546C63.5058 27.546 63.1232 27.644 62.7685 27.84C62.4232 28.036 62.1478 28.33 61.9425 28.722C61.7372 29.1047 61.6345 29.576 61.6345 30.136C61.6345 30.9667 61.8445 31.6107 62.2645 32.068C62.6938 32.516 63.2305 32.74 63.8745 32.74ZM72.6903 27.588H71.2623V34H69.6523V27.588H68.7423V26.286H69.6523V25.74C69.6523 24.8533 69.8856 24.2093 70.3523 23.808C70.8283 23.3973 71.5703 23.192 72.5783 23.192V24.522C72.0929 24.522 71.7523 24.6153 71.5563 24.802C71.3603 24.9793 71.2623 25.292 71.2623 25.74V26.286H72.6903V27.588ZM75.9667 27.588V31.858C75.9667 32.1473 76.032 32.3573 76.1627 32.488C76.3027 32.6093 76.536 32.67 76.8627 32.67H77.8427V34H76.5827C75.864 34 75.3134 33.832 74.9307 33.496C74.548 33.16 74.3567 32.614 74.3567 31.858V27.588H73.4467V26.286H74.3567V24.368H75.9667V26.286H77.8427V27.588H75.9667ZM89.6737 26.286L87.2797 34H85.5997L84.0457 28.302L82.4917 34H80.8117L78.4037 26.286H80.0277L81.6377 32.488L83.2757 26.286H84.9417L86.5097 32.46L88.1057 26.286H89.6737ZM90.3344 30.108C90.3344 29.3333 90.4931 28.6473 90.8104 28.05C91.1371 27.4527 91.5757 26.9907 92.1264 26.664C92.6864 26.328 93.3024 26.16 93.9744 26.16C94.5811 26.16 95.1084 26.2813 95.5564 26.524C96.0137 26.7573 96.3777 27.0513 96.6484 27.406V26.286H98.2584V34H96.6484V32.852C96.3777 33.216 96.0091 33.5193 95.5424 33.762C95.0757 34.0047 94.5437 34.126 93.9464 34.126C93.2837 34.126 92.6771 33.958 92.1264 33.622C91.5757 33.2767 91.1371 32.8007 90.8104 32.194C90.4931 31.578 90.3344 30.8827 90.3344 30.108ZM96.6484 30.136C96.6484 29.604 96.5364 29.142 96.3124 28.75C96.0977 28.358 95.8131 28.0593 95.4584 27.854C95.1037 27.6487 94.7211 27.546 94.3104 27.546C93.8997 27.546 93.5171 27.6487 93.1624 27.854C92.8077 28.05 92.5184 28.344 92.2944 28.736C92.0797 29.1187 91.9724 29.576 91.9724 30.108C91.9724 30.64 92.0797 31.1067 92.2944 31.508C92.5184 31.9093 92.8077 32.2173 93.1624 32.432C93.5264 32.6373 93.9091 32.74 94.3104 32.74C94.7211 32.74 95.1037 32.6373 95.4584 32.432C95.8131 32.2267 96.0977 31.928 96.3124 31.536C96.5364 31.1347 96.6484 30.668 96.6484 30.136ZM101.951 27.406C102.184 27.014 102.492 26.7107 102.875 26.496C103.267 26.272 103.729 26.16 104.261 26.16V27.812H103.855C103.229 27.812 102.753 27.9707 102.427 28.288C102.109 28.6053 101.951 29.156 101.951 29.94V34H100.355V26.286H101.951V27.406ZM112.798 29.954C112.798 30.2433 112.779 30.5047 112.742 30.738H106.848C106.894 31.354 107.123 31.8487 107.534 32.222C107.944 32.5953 108.448 32.782 109.046 32.782C109.904 32.782 110.511 32.4227 110.866 31.704H112.588C112.354 32.4133 111.93 32.9967 111.314 33.454C110.707 33.902 109.951 34.126 109.046 34.126C108.308 34.126 107.646 33.9627 107.058 33.636C106.479 33.3 106.022 32.8333 105.686 32.236C105.359 31.6293 105.196 30.9293 105.196 30.136C105.196 29.3427 105.354 28.6473 105.672 28.05C105.998 27.4433 106.451 26.9767 107.03 26.65C107.618 26.3233 108.29 26.16 109.046 26.16C109.774 26.16 110.422 26.3187 110.992 26.636C111.561 26.9533 112.004 27.4013 112.322 27.98C112.639 28.5493 112.798 29.2073 112.798 29.954ZM111.132 29.45C111.122 28.862 110.912 28.3907 110.502 28.036C110.091 27.6813 109.582 27.504 108.976 27.504C108.425 27.504 107.954 27.6813 107.562 28.036C107.17 28.3813 106.936 28.8527 106.862 29.45H111.132Z" fill="black"/>
<path d="M52.296 44.208C52.296 43.664 52.4213 43.176 52.672 42.744C52.928 42.312 53.272 41.976 53.704 41.736C54.1413 41.4907 54.6187 41.368 55.136 41.368C55.728 41.368 56.2533 41.5147 56.712 41.808C57.176 42.096 57.512 42.5067 57.72 43.04H56.624C56.48 42.7467 56.28 42.528 56.024 42.384C55.768 42.24 55.472 42.168 55.136 42.168C54.768 42.168 54.44 42.2507 54.152 42.416C53.864 42.5813 53.6373 42.8187 53.472 43.128C53.312 43.4373 53.232 43.7973 53.232 44.208C53.232 44.6187 53.312 44.9787 53.472 45.288C53.6373 45.5973 53.864 45.8373 54.152 46.008C54.44 46.1733 54.768 46.256 55.136 46.256C55.472 46.256 55.768 46.184 56.024 46.04C56.28 45.896 56.48 45.6773 56.624 45.384H57.72C57.512 45.9173 57.176 46.328 56.712 46.616C56.2533 46.904 55.728 47.048 55.136 47.048C54.6133 47.048 54.136 46.928 53.704 46.688C53.272 46.4427 52.928 46.104 52.672 45.672C52.4213 45.24 52.296 44.752 52.296 44.208ZM61.6755 47L60.3955 44.776H59.6995V47H58.7875V41.44H60.7075C61.1342 41.44 61.4942 41.5147 61.7875 41.664C62.0862 41.8133 62.3075 42.0133 62.4515 42.264C62.6008 42.5147 62.6755 42.7947 62.6755 43.104C62.6755 43.4667 62.5688 43.7973 62.3555 44.096C62.1475 44.3893 61.8248 44.5893 61.3875 44.696L62.7635 47H61.6755ZM59.6995 44.048H60.7075C61.0488 44.048 61.3048 43.9627 61.4755 43.792C61.6515 43.6213 61.7395 43.392 61.7395 43.104C61.7395 42.816 61.6542 42.592 61.4835 42.432C61.3128 42.2667 61.0542 42.184 60.7075 42.184H59.6995V44.048ZM69.6982 41.44V47H68.7862V43.192L67.0902 47H66.4582L64.7542 43.192V47H63.8422V41.44H64.8262L66.7782 45.8L68.7222 41.44H69.6982ZM73.8569 39.448L71.6809 48.4H70.7849L72.9529 39.448H73.8569ZM75.9183 42.176V43.808H77.8383V44.552H75.9183V46.256H78.0783V47H75.0063V41.432H78.0783V42.176H75.9183ZM82.0896 47L80.8096 44.776H80.1136V47H79.2016V41.44H81.1216C81.5482 41.44 81.9082 41.5147 82.2016 41.664C82.5002 41.8133 82.7216 42.0133 82.8656 42.264C83.0149 42.5147 83.0896 42.7947 83.0896 43.104C83.0896 43.4667 82.9829 43.7973 82.7696 44.096C82.5616 44.3893 82.2389 44.5893 81.8016 44.696L83.1776 47H82.0896ZM80.1136 44.048H81.1216C81.4629 44.048 81.7189 43.9627 81.8896 43.792C82.0656 43.6213 82.1536 43.392 82.1536 43.104C82.1536 42.816 82.0682 42.592 81.8976 42.432C81.7269 42.2667 81.4682 42.184 81.1216 42.184H80.1136V44.048ZM88.1443 43.096C88.1443 43.3787 88.0776 43.6453 87.9443 43.896C87.8109 44.1467 87.5976 44.352 87.3043 44.512C87.0109 44.6667 86.6349 44.744 86.1763 44.744H85.1683V47H84.2563V41.44H86.1763C86.6029 41.44 86.9629 41.5147 87.2563 41.664C87.5549 41.808 87.7763 42.0053 87.9203 42.256C88.0696 42.5067 88.1443 42.7867 88.1443 43.096ZM86.1763 44C86.5229 44 86.7816 43.9227 86.9523 43.768C87.1229 43.608 87.2083 43.384 87.2083 43.096C87.2083 42.488 86.8643 42.184 86.1763 42.184H85.1683V44H86.1763Z" fill="#153FD6"/>
</svg>
