<svg width="93" height="52" viewBox="0 0 93 52" fill="none" xmlns="http://www.w3.org/2000/svg">
<path d="M2.646 9.27V19H1.05V9.27H2.646ZM6.33741 12.406C6.57074 12.014 6.87874 11.7107 7.26141 11.496C7.65341 11.272 8.11541 11.16 8.64741 11.16V12.812H8.24141C7.61607 12.812 7.14007 12.9707 6.81341 13.288C6.49607 13.6053 6.33741 14.156 6.33741 14.94V19H4.74141V11.286H6.33741V12.406ZM17.1845 14.954C17.1845 15.2433 17.1658 15.5047 17.1285 15.738H11.2345C11.2811 16.354 11.5098 16.8487 11.9205 17.222C12.3311 17.5953 12.8351 17.782 13.4325 17.782C14.2911 17.782 14.8978 17.4227 15.2525 16.704H16.9745C16.7411 17.4133 16.3165 17.9967 15.7005 18.454C15.0938 18.902 14.3378 19.126 13.4325 19.126C12.6951 19.126 12.0325 18.9627 11.4445 18.636C10.8658 18.3 10.4085 17.8333 10.0725 17.236C9.74579 16.6293 9.58245 15.9293 9.58245 15.136C9.58245 14.3427 9.74112 13.6473 10.0585 13.05C10.3851 12.4433 10.8378 11.9767 11.4165 11.65C12.0045 11.3233 12.6765 11.16 13.4325 11.16C14.1605 11.16 14.8091 11.3187 15.3785 11.636C15.9478 11.9533 16.3911 12.4013 16.7085 12.98C17.0258 13.5493 17.1845 14.2073 17.1845 14.954ZM15.5185 14.45C15.5091 13.862 15.2991 13.3907 14.8885 13.036C14.4778 12.6813 13.9691 12.504 13.3625 12.504C12.8118 12.504 12.3405 12.6813 11.9485 13.036C11.5565 13.3813 11.3231 13.8527 11.2485 14.45H15.5185ZM28.0931 11.16C28.6997 11.16 29.2411 11.286 29.7171 11.538C30.2024 11.79 30.5804 12.1633 30.8511 12.658C31.1311 13.1527 31.2711 13.75 31.2711 14.45V19H29.6891V14.688C29.6891 13.9973 29.5164 13.47 29.1711 13.106C28.8257 12.7327 28.3544 12.546 27.7571 12.546C27.1597 12.546 26.6837 12.7327 26.3291 13.106C25.9837 13.47 25.8111 13.9973 25.8111 14.688V19H24.2291V14.688C24.2291 13.9973 24.0564 13.47 23.7111 13.106C23.3657 12.7327 22.8944 12.546 22.2971 12.546C21.6997 12.546 21.2237 12.7327 20.8691 13.106C20.5237 13.47 20.3511 13.9973 20.3511 14.688V19H18.7551V11.286H20.3511V12.168C20.6124 11.8507 20.9437 11.6033 21.3451 11.426C21.7464 11.2487 22.1757 11.16 22.6331 11.16C23.2491 11.16 23.7997 11.2907 24.2851 11.552C24.7704 11.8133 25.1437 12.1913 25.4051 12.686C25.6384 12.2193 26.0024 11.8507 26.4971 11.58C26.9917 11.3 27.5237 11.16 28.0931 11.16ZM40.372 14.954C40.372 15.2433 40.3533 15.5047 40.316 15.738H34.422C34.4686 16.354 34.6973 16.8487 35.108 17.222C35.5186 17.5953 36.0226 17.782 36.62 17.782C37.4786 17.782 38.0853 17.4227 38.44 16.704H40.162C39.9286 17.4133 39.504 17.9967 38.888 18.454C38.2813 18.902 37.5253 19.126 36.62 19.126C35.8826 19.126 35.22 18.9627 34.632 18.636C34.0533 18.3 33.596 17.8333 33.26 17.236C32.9333 16.6293 32.77 15.9293 32.77 15.136C32.77 14.3427 32.9286 13.6473 33.246 13.05C33.5726 12.4433 34.0253 11.9767 34.604 11.65C35.192 11.3233 35.864 11.16 36.62 11.16C37.348 11.16 37.9966 11.3187 38.566 11.636C39.1353 11.9533 39.5786 12.4013 39.896 12.98C40.2133 13.5493 40.372 14.2073 40.372 14.954ZM38.706 14.45C38.6966 13.862 38.4866 13.3907 38.076 13.036C37.6653 12.6813 37.1566 12.504 36.55 12.504C35.9993 12.504 35.528 12.6813 35.136 13.036C34.744 13.3813 34.5106 13.8527 34.436 14.45H38.706ZM3.85 34.126C3.24333 34.126 2.69733 34.0187 2.212 33.804C1.736 33.58 1.358 33.2813 1.078 32.908C0.798 32.5253 0.648667 32.1007 0.63 31.634H2.282C2.31 31.9607 2.464 32.236 2.744 32.46C3.03333 32.6747 3.39267 32.782 3.822 32.782C4.27 32.782 4.61533 32.698 4.858 32.53C5.11 32.3527 5.236 32.1287 5.236 31.858C5.236 31.5687 5.096 31.354 4.816 31.214C4.54533 31.074 4.11133 30.92 3.514 30.752C2.93533 30.5933 2.464 30.4393 2.1 30.29C1.736 30.1407 1.41867 29.912 1.148 29.604C0.886667 29.296 0.756 28.89 0.756 28.386C0.756 27.9753 0.877333 27.602 1.12 27.266C1.36267 26.9207 1.708 26.65 2.156 26.454C2.61333 26.258 3.136 26.16 3.724 26.16C4.60133 26.16 5.306 26.384 5.838 26.832C6.37933 27.2707 6.66867 27.8727 6.706 28.638H5.11C5.082 28.2927 4.942 28.0173 4.69 27.812C4.438 27.6067 4.09733 27.504 3.668 27.504C3.248 27.504 2.926 27.5833 2.702 27.742C2.478 27.9007 2.366 28.1107 2.366 28.372C2.366 28.5773 2.44067 28.75 2.59 28.89C2.73933 29.03 2.92133 29.142 3.136 29.226C3.35067 29.3007 3.668 29.3987 4.088 29.52C4.648 29.6693 5.10533 29.8233 5.46 29.982C5.824 30.1313 6.13667 30.3553 6.398 30.654C6.65933 30.9527 6.79467 31.3493 6.804 31.844C6.804 32.2827 6.68267 32.6747 6.44 33.02C6.19733 33.3653 5.852 33.636 5.404 33.832C4.96533 34.028 4.44733 34.126 3.85 34.126ZM11.8745 34.126C11.1465 34.126 10.4885 33.9627 9.90052 33.636C9.31252 33.3 8.85052 32.8333 8.51452 32.236C8.17852 31.6293 8.01052 30.9293 8.01052 30.136C8.01052 29.352 8.18318 28.6567 8.52852 28.05C8.87385 27.4433 9.34518 26.9767 9.94252 26.65C10.5398 26.3233 11.2072 26.16 11.9445 26.16C12.6818 26.16 13.3492 26.3233 13.9465 26.65C14.5438 26.9767 15.0152 27.4433 15.3605 28.05C15.7058 28.6567 15.8785 29.352 15.8785 30.136C15.8785 30.92 15.7012 31.6153 15.3465 32.222C14.9918 32.8287 14.5065 33.3 13.8905 33.636C13.2838 33.9627 12.6118 34.126 11.8745 34.126ZM11.8745 32.74C12.2852 32.74 12.6678 32.642 13.0225 32.446C13.3865 32.25 13.6805 31.956 13.9045 31.564C14.1285 31.172 14.2405 30.696 14.2405 30.136C14.2405 29.576 14.1332 29.1047 13.9185 28.722C13.7038 28.33 13.4192 28.036 13.0645 27.84C12.7098 27.644 12.3272 27.546 11.9165 27.546C11.5058 27.546 11.1232 27.644 10.7685 27.84C10.4232 28.036 10.1478 28.33 9.94252 28.722C9.73718 29.1047 9.63452 29.576 9.63452 30.136C9.63452 30.9667 9.84452 31.6107 10.2645 32.068C10.6938 32.516 11.2305 32.74 11.8745 32.74ZM20.6903 27.588H19.2623V34H17.6523V27.588H16.7423V26.286H17.6523V25.74C17.6523 24.8533 17.8856 24.2093 18.3523 23.808C18.8283 23.3973 19.5703 23.192 20.5783 23.192V24.522C20.0929 24.522 19.7523 24.6153 19.5563 24.802C19.3603 24.9793 19.2623 25.292 19.2623 25.74V26.286H20.6903V27.588ZM23.9667 27.588V31.858C23.9667 32.1473 24.032 32.3573 24.1627 32.488C24.3027 32.6093 24.536 32.67 24.8627 32.67H25.8427V34H24.5827C23.864 34 23.3134 33.832 22.9307 33.496C22.548 33.16 22.3567 32.614 22.3567 31.858V27.588H21.4467V26.286H22.3567V24.368H23.9667V26.286H25.8427V27.588H23.9667ZM37.6737 26.286L35.2797 34H33.5997L32.0457 28.302L30.4917 34H28.8117L26.4037 26.286H28.0277L29.6377 32.488L31.2757 26.286H32.9417L34.5097 32.46L36.1057 26.286H37.6737ZM38.3344 30.108C38.3344 29.3333 38.4931 28.6473 38.8104 28.05C39.1371 27.4527 39.5757 26.9907 40.1264 26.664C40.6864 26.328 41.3024 26.16 41.9744 26.16C42.5811 26.16 43.1084 26.2813 43.5564 26.524C44.0137 26.7573 44.3777 27.0513 44.6484 27.406V26.286H46.2584V34H44.6484V32.852C44.3777 33.216 44.0091 33.5193 43.5424 33.762C43.0757 34.0047 42.5437 34.126 41.9464 34.126C41.2837 34.126 40.6771 33.958 40.1264 33.622C39.5757 33.2767 39.1371 32.8007 38.8104 32.194C38.4931 31.578 38.3344 30.8827 38.3344 30.108ZM44.6484 30.136C44.6484 29.604 44.5364 29.142 44.3124 28.75C44.0977 28.358 43.8131 28.0593 43.4584 27.854C43.1037 27.6487 42.7211 27.546 42.3104 27.546C41.8997 27.546 41.5171 27.6487 41.1624 27.854C40.8077 28.05 40.5184 28.344 40.2944 28.736C40.0797 29.1187 39.9724 29.576 39.9724 30.108C39.9724 30.64 40.0797 31.1067 40.2944 31.508C40.5184 31.9093 40.8077 32.2173 41.1624 32.432C41.5264 32.6373 41.9091 32.74 42.3104 32.74C42.7211 32.74 43.1037 32.6373 43.4584 32.432C43.8131 32.2267 44.0977 31.928 44.3124 31.536C44.5364 31.1347 44.6484 30.668 44.6484 30.136ZM49.9507 27.406C50.184 27.014 50.492 26.7107 50.8747 26.496C51.2667 26.272 51.7287 26.16 52.2607 26.16V27.812H51.8547C51.2294 27.812 50.7534 27.9707 50.4267 28.288C50.1094 28.6053 49.9507 29.156 49.9507 29.94V34H48.3547V26.286H49.9507V27.406ZM60.7977 29.954C60.7977 30.2433 60.7791 30.5047 60.7417 30.738H54.8477C54.8944 31.354 55.1231 31.8487 55.5337 32.222C55.9444 32.5953 56.4484 32.782 57.0457 32.782C57.9044 32.782 58.5111 32.4227 58.8657 31.704H60.5877C60.3544 32.4133 59.9297 32.9967 59.3137 33.454C58.7071 33.902 57.9511 34.126 57.0457 34.126C56.3084 34.126 55.6457 33.9627 55.0577 33.636C54.4791 33.3 54.0217 32.8333 53.6857 32.236C53.3591 31.6293 53.1957 30.9293 53.1957 30.136C53.1957 29.3427 53.3544 28.6473 53.6717 28.05C53.9984 27.4433 54.4511 26.9767 55.0297 26.65C55.6177 26.3233 56.2897 26.16 57.0457 26.16C57.7737 26.16 58.4224 26.3187 58.9917 26.636C59.5611 26.9533 60.0044 27.4013 60.3217 27.98C60.6391 28.5493 60.7977 29.2073 60.7977 29.954ZM59.1317 29.45C59.1224 28.862 58.9124 28.3907 58.5017 28.036C58.0911 27.6813 57.5824 27.504 56.9757 27.504C56.4251 27.504 55.9537 27.6813 55.5617 28.036C55.1697 28.3813 54.9364 28.8527 54.8617 29.45H59.1317Z" fill="black"/>
<path d="M0.296 44.208C0.296 43.664 0.421333 43.176 0.672 42.744C0.928 42.312 1.272 41.976 1.704 41.736C2.14133 41.4907 2.61867 41.368 3.136 41.368C3.728 41.368 4.25333 41.5147 4.712 41.808C5.176 42.096 5.512 42.5067 5.72 43.04H4.624C4.48 42.7467 4.28 42.528 4.024 42.384C3.768 42.24 3.472 42.168 3.136 42.168C2.768 42.168 2.44 42.2507 2.152 42.416C1.864 42.5813 1.63733 42.8187 1.472 43.128C1.312 43.4373 1.232 43.7973 1.232 44.208C1.232 44.6187 1.312 44.9787 1.472 45.288C1.63733 45.5973 1.864 45.8373 2.152 46.008C2.44 46.1733 2.768 46.256 3.136 46.256C3.472 46.256 3.768 46.184 4.024 46.04C4.28 45.896 4.48 45.6773 4.624 45.384H5.72C5.512 45.9173 5.176 46.328 4.712 46.616C4.25333 46.904 3.728 47.048 3.136 47.048C2.61333 47.048 2.136 46.928 1.704 46.688C1.272 46.4427 0.928 46.104 0.672 45.672C0.421333 45.24 0.296 44.752 0.296 44.208ZM9.6755 47L8.3955 44.776H7.6995V47H6.7875V41.44H8.7075C9.13417 41.44 9.49417 41.5147 9.7875 41.664C10.0862 41.8133 10.3075 42.0133 10.4515 42.264C10.6008 42.5147 10.6755 42.7947 10.6755 43.104C10.6755 43.4667 10.5688 43.7973 10.3555 44.096C10.1475 44.3893 9.82483 44.5893 9.3875 44.696L10.7635 47H9.6755ZM7.6995 44.048H8.7075C9.04883 44.048 9.30483 43.9627 9.4755 43.792C9.6515 43.6213 9.7395 43.392 9.7395 43.104C9.7395 42.816 9.65417 42.592 9.4835 42.432C9.31283 42.2667 9.05417 42.184 8.7075 42.184H7.6995V44.048ZM17.6982 41.44V47H16.7862V43.192L15.0902 47H14.4582L12.7542 43.192V47H11.8422V41.44H12.8262L14.7782 45.8L16.7222 41.44H17.6982ZM21.8569 39.448L19.6809 48.4H18.7849L20.9529 39.448H21.8569ZM23.9183 42.176V43.808H25.8383V44.552H23.9183V46.256H26.0783V47H23.0063V41.432H26.0783V42.176H23.9183ZM30.0896 47L28.8096 44.776H28.1136V47H27.2016V41.44H29.1216C29.5482 41.44 29.9082 41.5147 30.2016 41.664C30.5002 41.8133 30.7216 42.0133 30.8656 42.264C31.0149 42.5147 31.0896 42.7947 31.0896 43.104C31.0896 43.4667 30.9829 43.7973 30.7696 44.096C30.5616 44.3893 30.2389 44.5893 29.8016 44.696L31.1776 47H30.0896ZM28.1136 44.048H29.1216C29.4629 44.048 29.7189 43.9627 29.8896 43.792C30.0656 43.6213 30.1536 43.392 30.1536 43.104C30.1536 42.816 30.0682 42.592 29.8976 42.432C29.7269 42.2667 29.4682 42.184 29.1216 42.184H28.1136V44.048ZM36.1443 43.096C36.1443 43.3787 36.0776 43.6453 35.9443 43.896C35.8109 44.1467 35.5976 44.352 35.3043 44.512C35.0109 44.6667 34.6349 44.744 34.1763 44.744H33.1683V47H32.2563V41.44H34.1763C34.6029 41.44 34.9629 41.5147 35.2563 41.664C35.5549 41.808 35.7763 42.0053 35.9203 42.256C36.0696 42.5067 36.1443 42.7867 36.1443 43.096ZM34.1763 44C34.5229 44 34.7816 43.9227 34.9523 43.768C35.1229 43.608 35.2083 43.384 35.2083 43.096C35.2083 42.488 34.8643 42.184 34.1763 42.184H33.1683V44H34.1763Z" fill="#153FD6"/>
</svg>
