<svg width="404" height="227" viewBox="0 0 404 227" fill="none" xmlns="http://www.w3.org/2000/svg">
<path d="M11.4945 41.732V84H4.56129V41.732H11.4945ZM27.5302 55.3551C28.5439 53.6522 29.8818 52.3345 31.5442 51.402C33.2471 50.4289 35.254 49.9424 37.5651 49.9424V57.1188H35.8014C33.0849 57.1188 31.0171 57.8081 29.598 59.1866C28.2195 60.5651 27.5302 62.9572 27.5302 66.363V84H20.5971V50.4897H27.5302V55.3551ZM74.6507 66.4238C74.6507 67.6807 74.5697 68.816 74.4075 69.8296H48.8034C49.0062 72.5055 49.9995 74.6544 51.7835 76.2762C53.5674 77.898 55.7569 78.7089 58.3517 78.7089C62.0819 78.7089 64.7173 77.1479 66.258 74.026H73.7385C72.7249 77.1074 70.8801 79.6414 68.2041 81.6281C65.5687 83.5743 62.2846 84.5474 58.3517 84.5474C55.1487 84.5474 52.27 83.8378 49.7157 82.4188C47.2019 80.9591 45.2152 78.9319 43.7556 76.337C42.3365 73.7016 41.627 70.6608 41.627 67.2144C41.627 63.7681 42.3163 60.7476 43.6948 58.1527C45.1139 55.5173 47.0803 53.49 49.5941 52.071C52.1484 50.6519 55.0676 49.9424 58.3517 49.9424C61.5142 49.9424 64.3321 50.6316 66.8053 52.0101C69.2786 53.3887 71.2044 55.3348 72.583 57.8486C73.9615 60.3218 74.6507 63.1802 74.6507 66.4238ZM67.4135 64.2344C67.373 61.6801 66.4607 59.6326 64.6767 58.0919C62.8928 56.5512 60.6831 55.7808 58.0476 55.7808C55.6555 55.7808 53.608 56.5512 51.9051 58.0919C50.2022 59.592 49.1886 61.6395 48.8643 64.2344H67.4135ZM122.039 49.9424C124.674 49.9424 127.026 50.4897 129.094 51.5844C131.202 52.6791 132.844 54.3009 134.02 56.4498C135.236 58.5987 135.844 61.1935 135.844 64.2344V84H128.972V65.2683C128.972 62.268 128.222 59.9772 126.722 58.396C125.222 56.7742 123.174 55.9633 120.579 55.9633C117.984 55.9633 115.916 56.7742 114.376 58.396C112.876 59.9772 112.126 62.268 112.126 65.2683V84H105.253V65.2683C105.253 62.268 104.503 59.9772 103.003 58.396C101.503 56.7742 99.4553 55.9633 96.8604 55.9633C94.2656 55.9633 92.1978 56.7742 90.6571 58.396C89.1569 59.9772 88.4068 62.268 88.4068 65.2683V84H81.4737V50.4897H88.4068V54.3212C89.5421 52.9427 90.9814 51.8682 92.7249 51.0979C94.4683 50.3275 96.3333 49.9424 98.32 49.9424C100.996 49.9424 103.388 50.51 105.496 51.6452C107.605 52.7805 109.227 54.4226 110.362 56.5714C111.375 54.5442 112.957 52.9427 115.106 51.7669C117.254 50.5505 119.566 49.9424 122.039 49.9424ZM175.379 66.4238C175.379 67.6807 175.298 68.816 175.136 69.8296H149.532C149.735 72.5055 150.728 74.6544 152.512 76.2762C154.296 77.898 156.485 78.7089 159.08 78.7089C162.81 78.7089 165.446 77.1479 166.986 74.026H174.467C173.453 77.1074 171.609 79.6414 168.933 81.6281C166.297 83.5743 163.013 84.5474 159.08 84.5474C155.877 84.5474 152.999 83.8378 150.444 82.4188C147.93 80.9591 145.944 78.9319 144.484 76.337C143.065 73.7016 142.356 70.6608 142.356 67.2144C142.356 63.7681 143.045 60.7476 144.423 58.1527C145.842 55.5173 147.809 53.49 150.323 52.071C152.877 50.6519 155.796 49.9424 159.08 49.9424C162.243 49.9424 165.061 50.6316 167.534 52.0101C170.007 53.3887 171.933 55.3348 173.311 57.8486C174.69 60.3218 175.379 63.1802 175.379 66.4238ZM168.142 64.2344C168.101 61.6801 167.189 59.6326 165.405 58.0919C163.621 56.5512 161.412 55.7808 158.776 55.7808C156.384 55.7808 154.336 56.5512 152.634 58.0919C150.931 59.592 149.917 61.6395 149.593 64.2344H168.142ZM16.7247 149.547C14.0893 149.547 11.7174 149.081 9.60912 148.149C7.54133 147.175 5.89927 145.878 4.68293 144.256C3.46658 142.594 2.81786 140.749 2.73677 138.722H9.9132C10.0348 140.141 10.7038 141.337 11.9202 142.31C13.1771 143.243 14.738 143.709 16.6031 143.709C18.5492 143.709 20.0494 143.344 21.1036 142.614C22.1983 141.844 22.7456 140.871 22.7456 139.695C22.7456 138.438 22.1375 137.506 20.9211 136.897C19.7453 136.289 17.86 135.62 15.2651 134.89C12.7513 134.201 10.7038 133.532 9.12258 132.883C7.54133 132.235 6.16281 131.241 4.98701 129.903C3.85176 128.565 3.28413 126.802 3.28413 124.612C3.28413 122.828 3.81121 121.207 4.86538 119.747C5.91954 118.247 7.4197 117.071 9.36585 116.22C11.3525 115.368 13.6231 114.942 16.1774 114.942C19.9886 114.942 23.0497 115.915 25.3608 117.862C27.7124 119.767 28.9693 122.382 29.1314 125.707H22.1983C22.0766 124.207 21.4685 123.011 20.3738 122.119C19.2791 121.227 17.7992 120.781 15.9341 120.781C14.1096 120.781 12.7108 121.125 11.7377 121.815C10.7646 122.504 10.2781 123.416 10.2781 124.551C10.2781 125.443 10.6025 126.194 11.2512 126.802C11.8999 127.41 12.6905 127.896 13.6231 128.261C14.5556 128.586 15.9341 129.011 17.7586 129.538C20.1913 130.187 22.178 130.856 23.7187 131.545C25.3 132.194 26.6582 133.167 27.7935 134.465C28.9287 135.762 29.5166 137.485 29.5572 139.634C29.5572 141.54 29.0301 143.243 27.9759 144.743C26.9218 146.243 25.4216 147.419 23.4754 148.27C21.5698 149.122 19.3196 149.547 16.7247 149.547ZM51.5839 149.547C48.4214 149.547 45.563 148.838 43.0087 147.419C40.4544 145.959 38.4474 143.932 36.9878 141.337C35.5282 138.702 34.7984 135.661 34.7984 132.214C34.7984 128.809 35.5484 125.788 37.0486 123.153C38.5488 120.517 40.5963 118.49 43.1911 117.071C45.786 115.652 48.685 114.942 51.888 114.942C55.091 114.942 57.99 115.652 60.5849 117.071C63.1797 118.49 65.2272 120.517 66.7274 123.153C68.2276 125.788 68.9776 128.809 68.9776 132.214C68.9776 135.62 68.2073 138.641 66.6666 141.276C65.1259 143.912 63.0176 145.959 60.3416 147.419C57.7062 148.838 54.787 149.547 51.5839 149.547ZM51.5839 143.526C53.3679 143.526 55.0302 143.101 56.5709 142.249C58.1522 141.398 59.4293 140.121 60.4024 138.418C61.3755 136.715 61.862 134.647 61.862 132.214C61.862 129.782 61.3958 127.734 60.4632 126.072C59.5307 124.369 58.2941 123.092 56.7534 122.24C55.2127 121.389 53.5503 120.963 51.7664 120.963C49.9824 120.963 48.3201 121.389 46.7794 122.24C45.2792 123.092 44.0831 124.369 43.1911 126.072C42.2992 127.734 41.8532 129.782 41.8532 132.214C41.8532 135.823 42.7654 138.621 44.5899 140.607C46.455 142.553 48.7863 143.526 51.5839 143.526ZM89.8802 121.146H83.6769V149H76.6829V121.146H72.7298V115.49H76.6829V113.118C76.6829 109.266 77.6965 106.468 79.7238 104.725C81.7915 102.941 85.0149 102.049 89.3937 102.049V107.827C87.2854 107.827 85.8055 108.232 84.954 109.043C84.1026 109.813 83.6769 111.172 83.6769 113.118V115.49H89.8802V121.146ZM104.113 121.146V139.695C104.113 140.952 104.397 141.864 104.965 142.432C105.573 142.959 106.587 143.222 108.006 143.222H112.263V149H106.789C103.667 149 101.275 148.27 99.6129 146.811C97.9505 145.351 97.1194 142.979 97.1194 139.695V121.146H93.1663V115.49H97.1194V107.158H104.113V115.49H112.263V121.146H104.113ZM163.658 115.49L153.258 149H145.96L139.209 124.247L132.458 149H125.16L114.7 115.49H121.755L128.749 142.432L135.864 115.49H143.101L149.913 142.31L156.846 115.49H163.658ZM166.528 132.093C166.528 128.728 167.217 125.748 168.596 123.153C170.015 120.558 171.92 118.551 174.313 117.132C176.745 115.672 179.421 114.942 182.34 114.942C184.976 114.942 187.267 115.469 189.213 116.524C191.199 117.537 192.781 118.814 193.957 120.355V115.49H200.951V149H193.957V144.013C192.781 145.594 191.179 146.912 189.152 147.966C187.125 149.02 184.814 149.547 182.219 149.547C179.34 149.547 176.705 148.818 174.313 147.358C171.92 145.858 170.015 143.79 168.596 141.155C167.217 138.479 166.528 135.458 166.528 132.093ZM193.957 132.214C193.957 129.903 193.47 127.896 192.497 126.194C191.564 124.491 190.328 123.193 188.787 122.301C187.246 121.409 185.584 120.963 183.8 120.963C182.016 120.963 180.354 121.409 178.813 122.301C177.272 123.153 176.015 124.43 175.042 126.133C174.11 127.795 173.644 129.782 173.644 132.093C173.644 134.404 174.11 136.431 175.042 138.175C176.015 139.918 177.272 141.256 178.813 142.188C180.394 143.08 182.057 143.526 183.8 143.526C185.584 143.526 187.246 143.08 188.787 142.188C190.328 141.296 191.564 139.999 192.497 138.296C193.47 136.553 193.957 134.526 193.957 132.214ZM216.99 120.355C218.004 118.652 219.342 117.335 221.004 116.402C222.707 115.429 224.714 114.942 227.025 114.942V122.119H225.261C222.545 122.119 220.477 122.808 219.058 124.187C217.679 125.565 216.99 127.957 216.99 131.363V149H210.057V115.49H216.99V120.355ZM264.111 131.424C264.111 132.681 264.03 133.816 263.867 134.83H238.263C238.466 137.506 239.459 139.654 241.243 141.276C243.027 142.898 245.217 143.709 247.812 143.709C251.542 143.709 254.177 142.148 255.718 139.026H263.198C262.185 142.107 260.34 144.641 257.664 146.628C255.029 148.574 251.744 149.547 247.812 149.547C244.609 149.547 241.73 148.838 239.176 147.419C236.662 145.959 234.675 143.932 233.215 141.337C231.796 138.702 231.087 135.661 231.087 132.214C231.087 128.768 231.776 125.748 233.155 123.153C234.574 120.517 236.54 118.49 239.054 117.071C241.608 115.652 244.527 114.942 247.812 114.942C250.974 114.942 253.792 115.632 256.265 117.01C258.738 118.389 260.664 120.335 262.043 122.849C263.421 125.322 264.111 128.18 264.111 131.424ZM256.873 129.234C256.833 126.68 255.921 124.633 254.137 123.092C252.353 121.551 250.143 120.781 247.507 120.781C245.115 120.781 243.068 121.551 241.365 123.092C239.662 124.592 238.648 126.64 238.324 129.234H256.873Z" fill="black"/>
<path d="M1.28585 193.603C1.28585 191.239 1.83031 189.119 2.91923 187.243C4.03131 185.366 5.52568 183.907 7.40232 182.864C9.30214 181.798 11.3757 181.265 13.6231 181.265C16.1948 181.265 18.4768 181.902 20.4693 183.177C22.485 184.428 23.9446 186.212 24.8482 188.529H20.0871C19.4615 187.254 18.5927 186.304 17.4806 185.679C16.3685 185.053 15.0827 184.741 13.6231 184.741C12.0244 184.741 10.5996 185.1 9.34847 185.818C8.09738 186.536 7.11272 187.567 6.3945 188.911C5.69944 190.255 5.35191 191.819 5.35191 193.603C5.35191 195.386 5.69944 196.95 6.3945 198.294C7.11272 199.638 8.09738 200.68 9.34847 201.422C10.5996 202.14 12.0244 202.499 13.6231 202.499C15.0827 202.499 16.3685 202.186 17.4806 201.561C18.5927 200.935 19.4615 199.985 20.0871 198.711H24.8482C23.9446 201.028 22.485 202.812 20.4693 204.063C18.4768 205.314 16.1948 205.94 13.6231 205.94C11.3525 205.94 9.27897 205.418 7.40232 204.376C5.52568 203.31 4.03131 201.839 2.91923 199.962C1.83031 198.086 1.28585 195.966 1.28585 193.603ZM42.0312 205.731L36.4708 196.07H33.4473V205.731H29.4855V181.578H37.8261C39.6796 181.578 41.2435 181.902 42.5177 182.551C43.8152 183.2 44.7767 184.069 45.4022 185.158C46.0509 186.247 46.3753 187.463 46.3753 188.807C46.3753 190.382 45.9119 191.819 44.9852 193.116C44.0816 194.39 42.6799 195.259 40.7801 195.722L46.7576 205.731H42.0312ZM33.4473 192.907H37.8261C39.3089 192.907 40.421 192.537 41.1624 191.795C41.9269 191.054 42.3092 190.058 42.3092 188.807C42.3092 187.556 41.9385 186.582 41.1971 185.887C40.4558 185.169 39.3321 184.81 37.8261 184.81H33.4473V192.907ZM76.8825 181.578V205.731H72.9206V189.189L65.5531 205.731H62.8076L55.4053 189.189V205.731H51.4435V181.578H55.7181L64.1977 200.518L72.6426 181.578H76.8825ZM94.9481 172.925L85.4954 211.813H81.6031L91.0211 172.925H94.9481ZM103.903 184.775V191.865H112.244V195.097H103.903V202.499H113.286V205.731H99.9411V181.543H113.286V184.775H103.903ZM130.712 205.731L125.151 196.07H122.128V205.731H118.166V181.578H126.507C128.36 181.578 129.924 181.902 131.198 182.551C132.496 183.2 133.457 184.069 134.083 185.158C134.731 186.247 135.056 187.463 135.056 188.807C135.056 190.382 134.592 191.819 133.666 193.116C132.762 194.39 131.36 195.259 129.461 195.722L135.438 205.731H130.712ZM122.128 192.907H126.507C127.989 192.907 129.101 192.537 129.843 191.795C130.607 191.054 130.99 190.058 130.99 188.807C130.99 187.556 130.619 186.582 129.878 185.887C129.136 185.169 128.013 184.81 126.507 184.81H122.128V192.907ZM157.014 188.772C157.014 190 156.724 191.158 156.145 192.247C155.566 193.336 154.639 194.228 153.365 194.923C152.09 195.595 150.457 195.931 148.465 195.931H144.086V205.731H140.124V181.578H148.465C150.318 181.578 151.882 181.902 153.156 182.551C154.454 183.177 155.415 184.034 156.041 185.123C156.689 186.212 157.014 187.428 157.014 188.772ZM148.465 192.699C149.971 192.699 151.094 192.363 151.836 191.691C152.577 190.996 152.948 190.023 152.948 188.772C152.948 186.131 151.453 184.81 148.465 184.81H144.086V192.699H148.465Z" fill="#153FD6"/>
</svg>
